/* XPM */
static char * elvis_xpm[] = {
"48 32 5 1",
" 	s None	c None",
".	c #000000000000",
"X	c #FFFF0000FFFF",
"o	c #FFFFFFFF0000",
"+	c #FFFFFFFFFFFF",
"  . . . . . . . . . . . . . . . . . . . . . .   ",
" .............................................  ",
"  .XXXXXXXXXXXXXXX................XXXXXXXXXXX.. ",
" ..XX.XXXXX.XXXXX..................XXXXXX...X.  ",
"  .X.X.XXX.X.XXXX..................XXXXX.X.XX.. ",
" ..XXX.XXX.X.XXXX..................XXXXXX...X.  ",
"  .XX.XXXX.X.XXXX..................XXXXXXXXXX.. ",
" ..X.XXXXX.X.XXX......ooo+++..o....XXXXX.X..X.  ",
"  .X.XXXXX.X.XXX.....oo++o+++.oo..XXXXXX..X.X.. ",
" ..X...X.XX.XXXX.+..ooo++++++.oo..XXXXXXXXXXX.  ",
"  .XXXXXXXXXXXXX.o..+++o++++.++oo.oXXXXX....X.. ",
" ..XXXXXXXXXXXXX.+..o++..+++++++.oooXXXXXXX.X.  ",
"  .XXXXXXXXXXXXX.o..+o++.++++.++.o+ooXXX....X.. ",
" ..XXXXXXXXXXXXX..o.++o+++.++.o.XoooXXXXXXXXX.  ",
"  ..................+ooo++o.+++.XXoXXXXXXXXXX.. ",
" ..oo.ooo.oooo..o.++o+o+++..++o.XoXXXXXoXXXXX.  ",
"  ..ooo.ooo...o.o.+++o+++++++o.XoooXXXXoXXXXX.. ",
" ..oo.ooo.o...o.o.o+++o+....+o.oo+ooXXoooXXXX.  ",
"  ..ooo.oo..ooo.oo.o+++++..o+o.XoooXXoo+ooXXX.. ",
" ..oo.ooo..oo...oo.oo+++++++o.XXXoXXXXoooXXXX.  ",
"  ..ooo.o.o.oo.ooo..oo.+++oo..XX....XXXoXXXXX.. ",
" ..oo.ooo.ooo........oo..oo.o.XX......XoXXXXX.  ",
"  ..ooo.o.o.oo.+++...oooo...oo........XXXXXXX.. ",
" .................+.+.....oo.oo........XXXXXX.  ",
"  ..++.+.+.+.+.++.++.++++..ooo.+.+.....XXXXXX.. ",
" ...+..+.+.+.+.+..+..+++..oo.o..+......XXXXXX.  ",
"  ..++.+.+.+.+.++.+..+++.o.oo..+.+.....XXXXXX.. ",
" ...+..+..+..+..+.+..++..ooo..+.+......XXXXXX.  ",
"  ..++.++.+..+.++.+..++.oo.o.+.+......XXXXXXX.. ",
" .................+..++..oooo.+......o.XXXXXX.  ",
"  ............................................. ",
"   . . . . . . . . . . . . . . . . . . . . . .  "};
