/* XPM */
static char * elvis_32x32_xpm[] = {
"32 32 207 2",
"  	c None",
". 	c #000000",
"+ 	c #AF00AF",
"@ 	c #AA00AA",
"# 	c #380038",
"$ 	c #AD00AD",
"% 	c #A700A7",
"& 	c #DF00DF",
"* 	c #750075",
"= 	c #BF00BF",
"- 	c #FF00FF",
"; 	c #550055",
"> 	c #200020",
", 	c #CA00CA",
"' 	c #E700E7",
") 	c #DC00DC",
"! 	c #600060",
"~ 	c #780078",
"{ 	c #280028",
"] 	c #C700C7",
"^ 	c #320032",
"/ 	c #232300",
"( 	c #686800",
"_ 	c #686823",
": 	c #686868",
"< 	c #454545",
"[ 	c #454500",
"} 	c #970097",
"| 	c #9A009A",
"1 	c #EF00EF",
"2 	c #101010",
"3 	c #101000",
"4 	c #D4D400",
"5 	c #FFFF7F",
"6 	c #FFFF9D",
"7 	c #FFFFC7",
"8 	c #EAEAEA",
"9 	c #404040",
"0 	c #EAEA00",
"a 	c #404000",
"b 	c #400040",
"c 	c #EA00EA",
"d 	c #B200B2",
"e 	c #420042",
"f 	c #870087",
"g 	c #CF00CF",
"h 	c #700070",
"i 	c #9F009F",
"j 	c #AAAA60",
"k 	c #AAAA4A",
"l 	c #FFFF70",
"m 	c #FFFF85",
"n 	c #FFFFFF",
"o 	c #DADADA",
"p 	c #7A7A7A",
"q 	c #FFFF4A",
"r 	c #9F9F00",
"s 	c #552530",
"t 	c #FF25DA",
"u 	c #DA00DA",
"v 	c #8F008F",
"w 	c #AAAA70",
"x 	c #AAAA3A",
"y 	c #FFFFEA",
"z 	c #8F8F6A",
"A 	c #ECECEC",
"B 	c #D7D7D7",
"C 	c #FFFFEC",
"D 	c #7A7A42",
"E 	c #DADA0B",
"F 	c #FFDA30",
"G 	c #FF15EA",
"H 	c #E200E2",
"I 	c #5A5A00",
"J 	c #505000",
"K 	c #AAAAAA",
"L 	c #FFFF7D",
"M 	c #FFFFD7",
"N 	c #A5A5A5",
"O 	c #AFAFAF",
"P 	c #555555",
"Q 	c #D7D787",
"R 	c #7D2D7D",
"S 	c #FFFF2D",
"T 	c #FF5AA5",
"U 	c #D200D2",
"V 	c #582830",
"W 	c #3D0D30",
"X 	c #2D0D20",
"Y 	c #0D0D00",
"Z 	c #484828",
"` 	c #B7B79D",
" .	c #FFFF3A",
"..	c #C5C555",
"+.	c #757575",
"@.	c #DFDFDF",
"#.	c #FF827D",
"$.	c #FF6897",
"%.	c #FF1BE4",
"&.	c #AAAA00",
"*.	c #D5D500",
"=.	c #808000",
"-.	c #7F7F00",
";.	c #555500",
">.	c #FFFFAA",
",.	c #FFFF80",
"'.	c #FFFFD4",
").	c #80552A",
"!.	c #D45580",
"~.	c #FFD42B",
"{.	c #FF2AD5",
"].	c #FFAA55",
"^.	c #C5C500",
"/.	c #8F8F00",
"(.	c #E2E200",
"_.	c #303000",
":.	c #BABA00",
"<.	c #757500",
"[.	c #DFDF60",
"}.	c #FFFFEF",
"|.	c #FFFFAD",
"1.	c #484848",
"2.	c #282828",
"3.	c #8F8F70",
"4.	c #FFFF55",
"5.	c #55381D",
"6.	c #FFE21D",
"7.	c #FFC53A",
"8.	c #FF10EF",
"9.	c #FF9F60",
"0.	c #FFF22D",
"a.	c #AFAF00",
"b.	c #A5A500",
"c.	c #D7D700",
"d.	c #D2D200",
"e.	c #787800",
"f.	c #FFFF00",
"g.	c #FFFF50",
"h.	c #878787",
"i.	c #FFFF82",
"j.	c #A5A528",
"k.	c #FF50AF",
"l.	c #FFD22D",
"m.	c #FF28D7",
"n.	c #FFA55A",
"o.	c #C7C700",
"p.	c #4A4A00",
"q.	c #858500",
"r.	c #383800",
"s.	c #B2B200",
"t.	c #0B0B00",
"u.	c #C7C720",
"v.	c #A2A28F",
"w.	c #DADAC7",
"x.	c #FFFF58",
"y.	c #A2A215",
"z.	c #1D1D00",
"A.	c #6A006A",
"B.	c #20150B",
"C.	c #EC15D7",
"D.	c #FFB54A",
"E.	c #FF0BF4",
"F.	c #B5B500",
"G.	c #CFCF00",
"H.	c #DADA00",
"I.	c #8F8F8F",
"J.	c #707000",
"K.	c #250025",
"L.	c #FF4AB5",
"M.	c #1D1D15",
"N.	c #585840",
"O.	c #252515",
"P.	c #32322A",
"Q.	c #2D2D15",
"R.	c #585858",
"S.	c #2D2D2D",
"T.	c #858585",
"U.	c #3A3A2A",
"V.	c #B7B700",
"W.	c #858515",
"X.	c #151515",
"Y.	c #2A2A2A",
"Z.	c #100010",
"`.	c #9A9A9A",
" +	c #CDCDCD",
".+	c #232323",
"++	c #656500",
"@+	c #CDCD00",
"#+	c #C5C5C5",
"$+	c #929292",
"%+	c #CACACA",
"&+	c #505050",
"*+	c #CFCFCF",
"=+	c #8A8A00",
"-+	c #424200",
";+	c #727272",
">+	c #707070",
",+	c #BFBFBF",
"'+	c #BFBF00",
")+	c #959500",
"!+	c #6A6A6A",
"~+	c #030303",
"{+	c #080808",
"]+	c #3A3A3A",
"^+	c #ADAD00",
"/+	c #3D3D05",
"(+	c #3D3805",
"                                                                ",
"                                                                ",
"                                                                ",
"                                                                ",
"                                                                ",
". . . . . . . . . . . . . . . . . . . . . . . . . . . . . . . . ",
". . + @ + + + @ + + + @ . . . . . . . . . . # $ + + + @ % $ . . ",
". . & * = - & * = - - ; . . . . . . . . . . . @ - - & * > , . . ",
". . ' ) ! - ' ) ! - - ; . . . . . . . . . . . @ - - ' ~ { ] . . ",
". . ) ~ - - ) ~ - - ) ^ . . / ( _ : < . [ . . @ - - ) ) } ) . . ",
". . @ | 1 1 @ | 1 - @ 2 . 3 4 5 6 7 8 9 0 a b c - - d e f d . . ",
". . g h i i g h i - @ j . k l m n n o p q r s t - - u v v u . . ",
". . - - - - - - - - @ w . x y z p n A B C D E F G - H % h @ . . ",
". . - - - - - - - - @ I J K L M N O n P Q R S S T - U ~ ~ U . . ",
". . V W V V W V V W X Y Z `  . .n ..+.@.w @ #.$.- - %.- - - . . ",
". . &.&.*.*.&.&.=.-.;.;.n >.,.'.n K K >.).!.~.{.- - ].- - - . . ",
". . ^./.(.(.=.[ _.:.;.<.[.}.|.7 1.2.3.4.5.6.l 7.8.9.0.$.- - . . ",
". . a.b.c.c.J I d.e.;.f.;.g.n n B h.i.j.+ k.l.m.m.l.g.n.- - . . ",
". . /.^.o.o.p.q.(.r.s.o.t./.u.v.w.x.y.z.- A.B.> ] C.D.E.- - . . ",
". . r F.G.G.;.r H._.I.I.. . f.F.q.J.;.F.h K.. . . @ L.- - - . . ",
". . M.N.O.O.P.P.Q.M.R.S.O T.N.N.U.J.V.o.W.X.Y.. . Z.- - - - . . ",
". . P `.P P K K P P  +.+ +.+n n < ++@+@+.+h.< . . . - - - - . . ",
". . P #+P P $+$+P P %+&+K . n *+J =+(.-+: ;+>+. . . - - - - . . ",
". . P ,+P ,+P P P P ,+P K . n P '+)+&.!++.+.. . . A.- - - - . . ",
". . ~+{+~+{+~+~+~+~+{+~++.. O ]+a &.^+/+;+~+. . r.(++ + + + . . ",
". . . . . . . . . . . . . . . . . . . . . . . . . . . . . . . . ",
"                                                                ",
"                                                                ",
"                                                                ",
"                                                                ",
"                                                                ",
"                                                                "};
