/* XPM */
static char * vi_xpm[] = {
"32 32 3 1",
" 	c None",
".	c white",
"X	c black",
"                                ",
"                                ",
"                                ",
"......         ........         ",
"XXXXX.         .XXXXXX.         ",
".XXX.          ..XXXX..         ",
"..XX.           .XXX..          ",
" .XX.           .XXX.           ",
" .XX.          ..XX..           ",
" .XX..         .XXX.   ....     ",
" .XXX.        ..XX..   .XX.     ",
" ..XX.        .XXX.    .XX.     ",
"  .XX.       ..XXX.    ....     ",
"  .XX..      .XXX..  ......     ",
"  .XXX.      .XXX.   .XXXX.     ",
"  ..XX.     ..XX..   ..XXX.     ",
"   .XX.     .XXX.     ..XX.     ",
"   .XX..   ..XXX.      .XX.     ",
"   .XXX.   .XXX..      .XX.     ",
"   ..XX.  ..XXX.       .XX.     ",
"    .XX.  .XXX..       .XX.     ",
"    .XX....XXX.        .XX.     ",
"    .XXX..XXX..        .XX.     ",
"    ..XX..XXX.         .XX.     ",
"     .XX.XXXX.         .XX.     ",
"     .XX.XXX..         .XX.     ",
"     .XXXXXX.       ....XX....  ",
"     ..XXXX..      ..XXXXXXXX.. ",
"      .XXXX.       .XXXXXXXXXX. ",
"      ......       ............ ",
"                                ",
"                                "};
